<svg width="35" height="33" viewBox="0 0 35 33" fill="none" xmlns="http://www.w3.org/2000/svg">
<path d="M33.8387 27.2439L19.9487 1.68393C19.6722 1.17453 19.2634 0.749204 18.7653 0.452823C18.2672 0.156443 17.6983 0 17.1187 0C16.5391 0 15.9703 0.156443 15.4722 0.452823C14.9741 0.749204 14.5652 1.17453 14.2887 1.68393L0.408714 27.2439C0.134237 27.7354 -0.006603 28.2902 0.000237834 28.8531C0.00707867 29.416 0.161361 29.9672 0.447701 30.4519C0.734041 30.9366 1.14243 31.3377 1.63215 31.6153C2.12187 31.8929 2.6758 32.0372 3.23871 32.0339H31.0087C31.5659 32.0334 32.1134 31.8882 32.5977 31.6127C33.082 31.3372 33.4865 30.9407 33.7717 30.462C34.0569 29.9834 34.213 29.4389 34.2247 28.8818C34.2365 28.3248 34.1035 27.7742 33.8387 27.2839V27.2439ZM15.8387 8.03393C15.8387 7.66263 15.9862 7.30654 16.2488 7.04398C16.5113 6.78143 16.8674 6.63393 17.2387 6.63393C17.61 6.63393 17.9661 6.78143 18.2287 7.04398C18.4912 7.30654 18.6387 7.66263 18.6387 8.03393V20.0339C18.6387 20.4052 18.4912 20.7613 18.2287 21.0239C17.9661 21.2864 17.61 21.4339 17.2387 21.4339C16.8674 21.4339 16.5113 21.2864 16.2488 21.0239C15.9862 20.7613 15.8387 20.4052 15.8387 20.0339V8.03393ZM17.2387 27.8839C16.8827 27.8839 16.5347 27.7784 16.2387 27.5806C15.9427 27.3828 15.712 27.1017 15.5757 26.7728C15.4395 26.4439 15.4038 26.0819 15.4733 25.7328C15.5428 25.3836 15.7142 25.0629 15.9659 24.8111C16.2177 24.5594 16.5384 24.388 16.8876 24.3185C17.2367 24.2491 17.5986 24.2847 17.9275 24.4209C18.2565 24.5572 18.5376 24.7879 18.7354 25.0839C18.9331 25.3799 19.0387 25.7279 19.0387 26.0839C19.0387 26.3203 18.9922 26.5544 18.9017 26.7728C18.8112 26.9912 18.6787 27.1896 18.5115 27.3567C18.3444 27.5239 18.1459 27.6565 17.9275 27.7469C17.7092 27.8374 17.4751 27.8839 17.2387 27.8839V27.8839Z" fill="#ff0000"/>
</svg>
